<?xml version="1.0" encoding="UTF-8" standalone="no"?>
<!-- Created with Inkscape (http://www.inkscape.org/) -->

<svg
   width="90"
   height="60"
   viewBox="0 0 23.812499 15.875"
   version="1.1"
   id="svg1"
   inkscape:version="1.4 (86a8ad7, 2024-10-11)"
   sodipodi:docname="mntb.svg"
   xmlns:inkscape="http://www.inkscape.org/namespaces/inkscape"
   xmlns:sodipodi="http://sodipodi.sourceforge.net/DTD/sodipodi-0.dtd"
   xmlns="http://www.w3.org/2000/svg"
   xmlns:svg="http://www.w3.org/2000/svg">
  <sodipodi:namedview
     id="namedview1"
     pagecolor="#ffffff"
     bordercolor="#000000"
     borderopacity="0.25"
     inkscape:showpageshadow="2"
     inkscape:pageopacity="0.0"
     inkscape:pagecheckerboard="0"
     inkscape:deskcolor="#d1d1d1"
     inkscape:document-units="mm"
     inkscape:zoom="6.6621204"
     inkscape:cx="55.162618"
     inkscape:cy="26.342964"
     inkscape:window-width="1600"
     inkscape:window-height="829"
     inkscape:window-x="-8"
     inkscape:window-y="-8"
     inkscape:window-maximized="1"
     inkscape:current-layer="layer1" />
  <defs
     id="defs1" />
  <g
     inkscape:label="Layer 1"
     inkscape:groupmode="layer"
     id="layer1">
    <path
       d="m 20.374087,3.0964415 c -0.04653,-0.01994 -0.08973,-0.03988 -0.136257,-0.06314 v -0.239282 c 0,-0.136258 -0.07311,-0.259223 -0.192755,-0.32569 C 17.346502,0.97281449 14.608047,0.94290449 11.906151,2.3719495 9.2042589,0.94290249 6.4691279,0.97613649 3.7672322,2.4683295 3.6475911,2.5347995 3.574477,2.6577615 3.574477,2.7940195 v 0.239282 c -0.046527,0.01994 -0.089731,0.03988 -0.1362579,0.06314 -0.2492525,0.119641 -0.408774,0.372217 -0.408774,0.65138 V 13.784385 c 0,0.37554 0.3589236,0.641409 0.717847,0.538385 2.7185128,-0.787638 5.4403498,-0.7112 8.1588589,0.229312 2.718514,-0.940512 5.440351,-1.01695 8.158863,-0.229312 0.358924,0.103024 0.717847,-0.162845 0.717847,-0.538385 V 3.7478215 c 0.0066,-0.279163 -0.156197,-0.531739 -0.408774,-0.65138 z M 4.3255576,3.0166805 c 2.4227333,-1.276172 4.7889693,-1.276172 7.2117004,0 V 12.96019 c -1.19641,-0.38551 -2.4027911,-0.578265 -3.6058491,-0.578265 -1.203058,0 -2.40944,0.192755 -3.6058513,0.578265 z m 15.1678394,0 V 12.96019 c -2.396147,-0.771021 -4.815558,-0.771021 -7.211705,0 V 3.0166805 c 2.426058,-1.276172 4.788969,-1.276172 7.211705,0 z"
       id="path2"
       style="fill:#fccee8;fill-opacity:0.94902;stroke-width:0.0332337" />
  </g>
</svg>
